<svg xmlns="http://www.w3.org/2000/svg" xmlns:xlink="http://www.w3.org/1999/xlink" width="40" zoomAndPan="magnify" viewBox="0 0 30 30.000001" height="40" preserveAspectRatio="xMidYMid meet" version="1.0"><defs><clipPath id="52d6af7785"><path d="M 0.484375 0 L 29.515625 0 L 29.515625 29.03125 L 0.484375 29.03125 Z M 0.484375 0 " clip-rule="nonzero"/></clipPath><clipPath id="c0dd6503fb"><path d="M 3.445312 2.960938 L 26.671875 2.960938 L 26.671875 26.1875 L 3.445312 26.1875 Z M 3.445312 2.960938 " clip-rule="nonzero"/></clipPath></defs><g clip-path="url(#52d6af7785)"><path fill="#ffffff" d="M 0.484375 0 L 29.515625 0 L 29.515625 137.902344 L 0.484375 137.902344 Z M 0.484375 0 " fill-opacity="1" fill-rule="nonzero"/><path fill="#ffffff" d="M 0.484375 0 L 29.515625 0 L 29.515625 29.03125 L 0.484375 29.03125 Z M 0.484375 0 " fill-opacity="1" fill-rule="nonzero"/><path fill="#ffffff" d="M 0.484375 0 L 29.515625 0 L 29.515625 29.03125 L 0.484375 29.03125 Z M 0.484375 0 " fill-opacity="1" fill-rule="nonzero"/></g><g clip-path="url(#c0dd6503fb)"><path fill="#0c4edf" d="M 26.671875 14.574219 C 26.671875 11.757812 25.664062 9.175781 23.992188 7.160156 C 23.980469 7.144531 23.96875 7.128906 23.957031 7.113281 C 23.941406 7.09375 23.925781 7.078125 23.90625 7.0625 C 21.777344 4.554688 18.601562 2.960938 15.058594 2.960938 C 11.519531 2.960938 8.34375 4.554688 6.210938 7.0625 C 6.195312 7.078125 6.175781 7.09375 6.164062 7.113281 C 6.148438 7.128906 6.136719 7.144531 6.128906 7.160156 C 4.453125 9.175781 3.445312 11.757812 3.445312 14.574219 C 3.445312 17.582031 4.59375 20.324219 6.476562 22.390625 C 6.480469 22.394531 6.484375 22.402344 6.488281 22.40625 C 6.511719 22.4375 6.535156 22.460938 6.5625 22.484375 C 8.6875 24.761719 11.707031 26.1875 15.058594 26.1875 C 18.410156 26.1875 21.429688 24.761719 23.554688 22.484375 C 23.582031 22.460938 23.609375 22.4375 23.628906 22.40625 C 23.636719 22.402344 23.636719 22.394531 23.640625 22.390625 C 25.523438 20.324219 26.671875 17.582031 26.671875 14.574219 Z M 22.011719 20.824219 C 22.796875 19.09375 23.238281 17.101562 23.292969 15.011719 L 25.789062 15.011719 C 25.691406 17.503906 24.738281 19.78125 23.214844 21.554688 C 22.835938 21.292969 22.4375 21.046875 22.011719 20.824219 Z M 6.902344 21.554688 C 5.382812 19.78125 4.429688 17.503906 4.328125 15.011719 L 6.824219 15.011719 C 6.878906 17.101562 7.320312 19.09375 8.105469 20.824219 C 7.683594 21.046875 7.28125 21.292969 6.902344 21.554688 Z M 6.570312 8.003906 C 6.976562 8.3125 7.414062 8.597656 7.878906 8.855469 C 7.234375 10.457031 6.871094 12.257812 6.824219 14.140625 L 4.328125 14.140625 C 4.421875 11.835938 5.242188 9.714844 6.570312 8.003906 Z M 25.789062 14.140625 L 23.292969 14.140625 C 23.246094 12.257812 22.882812 10.457031 22.238281 8.855469 C 22.703125 8.597656 23.140625 8.3125 23.546875 8.003906 C 24.875 9.714844 25.699219 11.835938 25.789062 14.140625 Z M 22.421875 14.140625 L 18.859375 14.140625 C 18.84375 12.777344 18.753906 11.453125 18.601562 10.222656 C 19.613281 9.996094 20.574219 9.667969 21.457031 9.253906 C 22.027344 10.707031 22.371094 12.367188 22.421875 14.140625 Z M 15.496094 25.160156 L 15.496094 20.066406 C 16.179688 20.085938 16.855469 20.148438 17.515625 20.257812 C 17.378906 21.011719 17.214844 21.714844 17.023438 22.351562 C 16.589844 23.785156 16.035156 24.792969 15.496094 25.160156 Z M 13.097656 22.351562 C 12.902344 21.714844 12.738281 21.011719 12.601562 20.257812 C 13.261719 20.148438 13.9375 20.085938 14.621094 20.066406 L 14.621094 25.160156 C 14.085938 24.792969 13.527344 23.785156 13.097656 22.351562 Z M 14.621094 3.988281 L 14.621094 9.734375 C 13.898438 9.714844 13.1875 9.644531 12.496094 9.527344 C 12.648438 8.53125 12.851562 7.613281 13.097656 6.796875 C 13.527344 5.363281 14.085938 4.355469 14.621094 3.988281 Z M 17.023438 6.796875 C 17.265625 7.613281 17.46875 8.53125 17.625 9.527344 C 16.929688 9.644531 16.21875 9.714844 15.496094 9.734375 L 15.496094 3.988281 C 16.035156 4.355469 16.589844 5.363281 17.023438 6.796875 Z M 14.621094 10.609375 L 14.621094 14.140625 L 12.132812 14.140625 C 12.148438 12.832031 12.230469 11.570312 12.375 10.390625 C 13.105469 10.515625 13.859375 10.585938 14.621094 10.609375 Z M 14.621094 15.011719 L 14.621094 19.195312 C 13.890625 19.214844 13.167969 19.28125 12.460938 19.398438 C 12.261719 18.042969 12.148438 16.554688 12.132812 15.011719 Z M 15.496094 19.195312 L 15.496094 15.011719 L 17.988281 15.011719 C 17.96875 16.554688 17.855469 18.042969 17.65625 19.398438 C 16.949219 19.28125 16.226562 19.214844 15.496094 19.195312 Z M 15.496094 14.140625 L 15.496094 10.609375 C 16.257812 10.585938 17.011719 10.515625 17.742188 10.390625 C 17.886719 11.570312 17.972656 12.832031 17.988281 14.140625 Z M 18.480469 9.359375 C 18.320312 8.335938 18.109375 7.386719 17.855469 6.546875 C 17.550781 5.535156 17.199219 4.730469 16.804688 4.140625 C 18.578125 4.769531 20.097656 6.335938 21.113281 8.457031 C 20.296875 8.839844 19.410156 9.140625 18.480469 9.359375 Z M 13.3125 4.140625 C 12.917969 4.730469 12.566406 5.535156 12.261719 6.546875 C 12.007812 7.386719 11.800781 8.335938 11.640625 9.359375 C 10.707031 9.140625 9.820312 8.839844 9.007812 8.457031 C 10.019531 6.335938 11.542969 4.769531 13.3125 4.140625 Z M 11.515625 10.222656 C 11.363281 11.453125 11.273438 12.777344 11.257812 14.140625 L 7.695312 14.140625 C 7.746094 12.367188 8.089844 10.707031 8.660156 9.253906 C 9.542969 9.667969 10.507812 9.996094 11.515625 10.222656 Z M 7.695312 15.011719 L 11.257812 15.011719 C 11.277344 16.609375 11.394531 18.152344 11.605469 19.5625 C 10.648438 19.773438 9.738281 20.070312 8.890625 20.445312 C 8.183594 18.871094 7.75 17.011719 7.695312 15.011719 Z M 11.746094 20.421875 C 11.886719 21.207031 12.0625 21.9375 12.261719 22.605469 C 12.566406 23.617188 12.917969 24.421875 13.3125 25.011719 C 11.691406 24.433594 10.28125 23.074219 9.277344 21.226562 C 10.046875 20.886719 10.878906 20.617188 11.746094 20.421875 Z M 16.804688 25.011719 C 17.199219 24.421875 17.550781 23.617188 17.855469 22.605469 C 18.058594 21.9375 18.230469 21.207031 18.371094 20.421875 C 19.242188 20.617188 20.070312 20.886719 20.839844 21.226562 C 19.835938 23.074219 18.425781 24.433594 16.804688 25.011719 Z M 18.515625 19.5625 C 18.722656 18.152344 18.839844 16.609375 18.859375 15.011719 L 22.421875 15.011719 C 22.367188 17.011719 21.933594 18.871094 21.226562 20.445312 C 20.378906 20.070312 19.46875 19.773438 18.515625 19.5625 Z M 22.984375 7.335938 C 22.640625 7.59375 22.273438 7.835938 21.886719 8.054688 C 21.609375 7.476562 21.289062 6.929688 20.9375 6.421875 C 20.507812 5.808594 20.039062 5.273438 19.539062 4.816406 C 20.851562 5.417969 22.023438 6.28125 22.984375 7.335938 Z M 10.578125 4.816406 C 10.078125 5.273438 9.609375 5.808594 9.183594 6.421875 C 8.828125 6.929688 8.511719 7.476562 8.230469 8.054688 C 7.84375 7.835938 7.476562 7.59375 7.132812 7.335938 C 8.097656 6.28125 9.265625 5.417969 10.578125 4.816406 Z M 7.503906 22.199219 C 7.816406 21.988281 8.144531 21.789062 8.492188 21.605469 C 8.703125 21.996094 8.933594 22.371094 9.183594 22.726562 C 9.609375 23.339844 10.078125 23.878906 10.578125 24.335938 C 9.429688 23.804688 8.390625 23.082031 7.503906 22.199219 Z M 20.9375 22.726562 C 21.183594 22.371094 21.414062 21.996094 21.625 21.605469 C 21.972656 21.789062 22.300781 21.988281 22.617188 22.199219 C 21.726562 23.082031 20.6875 23.804688 19.539062 24.335938 C 20.039062 23.878906 20.507812 23.339844 20.9375 22.726562 Z M 20.9375 22.726562 " fill-opacity="1" fill-rule="nonzero"/></g></svg>