<svg xmlns="http://www.w3.org/2000/svg" xmlns:xlink="http://www.w3.org/1999/xlink" width="40" zoomAndPan="magnify" viewBox="0 0 30 30.000001" height="40" preserveAspectRatio="xMidYMid meet" version="1.0"><defs><clipPath id="912061c4d3"><path d="M 0.484375 0 L 29.515625 0 L 29.515625 29.03125 L 0.484375 29.03125 Z M 0.484375 0 " clip-rule="nonzero"/></clipPath><clipPath id="0c3c84658c"><path d="M 3.386719 2.902344 L 26.613281 2.902344 L 26.613281 14 L 3.386719 14 Z M 3.386719 2.902344 " clip-rule="nonzero"/></clipPath><clipPath id="f4c82edd73"><path d="M 11 12 L 26 12 L 26 26.855469 L 11 26.855469 Z M 11 12 " clip-rule="nonzero"/></clipPath></defs><g clip-path="url(#912061c4d3)"><path fill="#ffffff" d="M 0.484375 0 L 29.515625 0 L 29.515625 29.03125 L 0.484375 29.03125 Z M 0.484375 0 " fill-opacity="1" fill-rule="nonzero"/><path fill="#ffffff" d="M 0.484375 0 L 29.515625 0 L 29.515625 29.03125 L 0.484375 29.03125 Z M 0.484375 0 " fill-opacity="1" fill-rule="nonzero"/></g><g clip-path="url(#0c3c84658c)"><path fill="#0c4edf" d="M 23.871094 9.914062 C 23.507812 9.914062 23.246094 9.644531 23.246094 9.277344 C 23.246094 8.902344 23.507812 8.632812 23.878906 8.632812 C 24.25 8.632812 24.503906 8.894531 24.503906 9.277344 C 24.503906 9.644531 24.25 9.914062 23.871094 9.914062 Z M 21.582031 9.839844 L 20.582031 9.839844 L 20.257812 8.644531 C 20.175781 8.3125 20.109375 8.007812 20.042969 7.589844 L 20.027344 7.589844 C 19.964844 8.015625 19.894531 8.324219 19.800781 8.644531 L 19.457031 9.839844 L 18.457031 9.839844 L 17.460938 6.445312 L 18.546875 6.445312 L 18.820312 7.832031 C 18.890625 8.1875 18.960938 8.5625 19.015625 8.949219 L 19.03125 8.949219 C 19.101562 8.5625 19.199219 8.171875 19.285156 7.839844 L 19.648438 6.445312 L 20.488281 6.445312 L 20.832031 7.796875 C 20.925781 8.179688 21.015625 8.5625 21.085938 8.949219 L 21.101562 8.949219 C 21.148438 8.5625 21.21875 8.179688 21.296875 7.792969 L 21.589844 6.445312 L 22.636719 6.445312 Z M 15.601562 9.839844 L 14.597656 9.839844 L 14.273438 8.644531 C 14.191406 8.3125 14.128906 8.007812 14.058594 7.589844 L 14.042969 7.589844 C 13.980469 8.015625 13.910156 8.324219 13.820312 8.644531 L 13.476562 9.839844 L 12.472656 9.839844 L 11.476562 6.445312 L 12.5625 6.445312 L 12.835938 7.832031 C 12.90625 8.1875 12.976562 8.5625 13.035156 8.949219 L 13.046875 8.949219 C 13.117188 8.5625 13.214844 8.171875 13.300781 7.839844 L 13.664062 6.445312 L 14.507812 6.445312 L 14.851562 7.796875 C 14.941406 8.179688 15.03125 8.5625 15.101562 8.949219 L 15.117188 8.949219 C 15.167969 8.5625 15.234375 8.179688 15.3125 7.792969 L 15.609375 6.445312 L 16.652344 6.445312 Z M 9.617188 9.839844 L 8.613281 9.839844 L 8.292969 8.644531 C 8.207031 8.3125 8.144531 8.007812 8.074219 7.589844 L 8.058594 7.589844 C 7.996094 8.015625 7.925781 8.324219 7.835938 8.644531 L 7.492188 9.839844 L 6.488281 9.839844 L 5.492188 6.445312 L 6.578125 6.445312 L 6.851562 7.832031 C 6.921875 8.1875 6.992188 8.5625 7.050781 8.949219 L 7.0625 8.949219 C 7.132812 8.5625 7.230469 8.171875 7.316406 7.839844 L 7.679688 6.445312 L 8.523438 6.445312 L 8.867188 7.796875 C 8.957031 8.179688 9.050781 8.5625 9.121094 8.949219 L 9.132812 8.949219 C 9.183594 8.5625 9.253906 8.179688 9.328125 7.792969 L 9.625 6.445312 L 10.667969 6.445312 Z M 25.246094 2.90625 L 4.75 2.90625 C 3.996094 2.90625 3.386719 3.507812 3.386719 4.253906 L 3.386719 12.105469 C 3.386719 12.851562 3.996094 13.457031 4.75 13.457031 L 11.535156 13.457031 C 11.601562 13.222656 11.695312 12.992188 11.820312 12.773438 C 12.222656 12.0625 12.886719 11.550781 13.683594 11.328125 C 14.007812 11.238281 14.347656 11.199219 14.695312 11.21875 C 15.050781 11.242188 15.398438 11.320312 15.726562 11.457031 C 16.601562 11.828125 17.246094 12.554688 17.5 13.453125 L 17.5 13.457031 L 25.246094 13.457031 C 26 13.457031 26.609375 12.851562 26.609375 12.105469 L 26.609375 4.253906 C 26.609375 3.507812 26 2.90625 25.246094 2.90625 " fill-opacity="1" fill-rule="nonzero"/></g><g clip-path="url(#f4c82edd73)"><path fill="#0c4edf" d="M 12.65625 20.464844 C 12.472656 20.453125 12.304688 20.546875 12.214844 20.703125 C 12.085938 20.925781 12.167969 21.214844 12.398438 21.339844 C 12.429688 21.355469 16.195312 23.289062 17.566406 24.863281 L 18.09375 25.375 C 18.238281 25.492188 18.375 25.582031 18.515625 25.640625 C 18.804688 25.761719 19.125 25.71875 19.332031 25.664062 L 22.347656 24.832031 C 23.03125 24.628906 23.507812 24.203125 23.75 23.570312 C 23.953125 23.046875 23.925781 22.511719 23.855469 22.28125 L 22.269531 16.660156 C 22.230469 16.523438 22.128906 16.410156 21.996094 16.355469 C 21.898438 16.3125 21.785156 16.304688 21.6875 16.335938 C 21.558594 16.367188 21.460938 16.445312 21.398438 16.554688 C 21.335938 16.667969 21.320312 16.789062 21.355469 16.914062 L 21.753906 18.320312 C 21.835938 18.613281 21.652344 18.941406 21.355469 19.027344 C 21.238281 19.0625 21.101562 19.054688 20.984375 19.011719 C 20.8125 18.945312 20.679688 18.800781 20.632812 18.625 L 20.074219 16.652344 C 20.035156 16.511719 19.9375 16.402344 19.800781 16.347656 C 19.707031 16.304688 19.59375 16.296875 19.492188 16.328125 C 19.238281 16.394531 19.089844 16.65625 19.160156 16.90625 L 19.71875 18.882812 C 19.757812 19.023438 19.738281 19.191406 19.664062 19.320312 C 19.589844 19.453125 19.449219 19.558594 19.296875 19.59375 C 19.1875 19.621094 19.050781 19.613281 18.941406 19.570312 C 18.777344 19.5 18.664062 19.378906 18.609375 19.226562 L 17.851562 16.546875 C 17.8125 16.410156 17.710938 16.296875 17.578125 16.242188 C 17.480469 16.199219 17.367188 16.191406 17.265625 16.222656 C 17.015625 16.289062 16.867188 16.550781 16.9375 16.800781 L 17.683594 19.441406 C 17.722656 19.578125 17.703125 19.738281 17.636719 19.867188 C 17.578125 19.988281 17.453125 20.101562 17.300781 20.152344 C 17.28125 20.15625 17.265625 20.164062 17.246094 20.167969 C 17.140625 20.191406 17.019531 20.183594 16.914062 20.144531 C 16.90625 20.140625 16.898438 20.136719 16.890625 20.132812 C 16.882812 20.132812 16.871094 20.125 16.863281 20.121094 C 16.707031 20.046875 16.585938 19.894531 16.550781 19.726562 L 14.972656 14.148438 C 14.933594 14.011719 14.835938 13.902344 14.703125 13.84375 C 14.605469 13.804688 14.492188 13.796875 14.390625 13.824219 C 14.265625 13.859375 14.164062 13.9375 14.101562 14.046875 C 14.039062 14.15625 14.023438 14.28125 14.058594 14.402344 L 15.9375 21.046875 C 15.992188 21.253906 15.921875 21.492188 15.761719 21.632812 C 15.746094 21.648438 15.730469 21.660156 15.710938 21.671875 C 15.558594 21.78125 15.328125 21.804688 15.152344 21.734375 C 15.132812 21.726562 15.117188 21.71875 15.101562 21.710938 L 12.875 20.53125 C 12.847656 20.515625 12.832031 20.507812 12.816406 20.503906 C 12.765625 20.480469 12.710938 20.46875 12.65625 20.464844 Z M 18.804688 26.835938 C 18.554688 26.820312 18.3125 26.761719 18.074219 26.664062 C 17.832031 26.5625 17.597656 26.414062 17.363281 26.21875 C 17.359375 26.214844 17.328125 26.1875 17.324219 26.183594 L 16.761719 25.640625 C 16.75 25.628906 16.738281 25.621094 16.730469 25.609375 C 15.511719 24.207031 11.914062 22.34375 11.875 22.324219 C 11.078125 21.878906 10.804688 20.914062 11.234375 20.15625 C 11.539062 19.628906 12.105469 19.320312 12.722656 19.355469 C 12.90625 19.367188 13.085938 19.40625 13.261719 19.480469 C 13.316406 19.503906 13.367188 19.527344 13.417969 19.558594 L 14.511719 20.136719 L 12.976562 14.703125 C 12.863281 14.296875 12.914062 13.871094 13.125 13.5 C 13.332031 13.132812 13.675781 12.867188 14.085938 12.753906 C 14.429688 12.660156 14.808594 12.683594 15.140625 12.820312 C 15.589844 13.011719 15.925781 13.386719 16.054688 13.851562 L 16.484375 15.375 C 16.628906 15.277344 16.789062 15.199219 16.964844 15.152344 C 17.3125 15.054688 17.6875 15.078125 18.019531 15.21875 C 18.226562 15.308594 18.410156 15.433594 18.5625 15.59375 C 18.738281 15.441406 18.949219 15.320312 19.1875 15.257812 C 19.53125 15.160156 19.910156 15.183594 20.242188 15.324219 C 20.421875 15.398438 20.582031 15.503906 20.71875 15.632812 C 20.902344 15.460938 21.128906 15.332031 21.382812 15.265625 C 21.726562 15.167969 22.105469 15.191406 22.4375 15.332031 C 22.886719 15.523438 23.21875 15.894531 23.351562 16.359375 L 24.9375 21.976562 C 25.0625 22.398438 25.101562 23.183594 24.800781 23.964844 C 24.542969 24.632812 23.964844 25.511719 22.660156 25.898438 L 19.636719 26.734375 C 19.445312 26.785156 19.152344 26.855469 18.804688 26.835938 " fill-opacity="1" fill-rule="nonzero"/></g></svg>