<svg xmlns="http://www.w3.org/2000/svg" xmlns:xlink="http://www.w3.org/1999/xlink" width="40" zoomAndPan="magnify" viewBox="0 0 30 30.000001" height="40" preserveAspectRatio="xMidYMid meet" version="1.0"><defs><clipPath id="29d975b390"><path d="M 0.484375 0 L 29.515625 0 L 29.515625 29.03125 L 0.484375 29.03125 Z M 0.484375 0 " clip-rule="nonzero"/></clipPath><clipPath id="0c4b36a88e"><path d="M 3.386719 5.386719 L 26.613281 5.386719 L 26.613281 23.53125 L 3.386719 23.53125 Z M 3.386719 5.386719 " clip-rule="nonzero"/></clipPath></defs><g clip-path="url(#29d975b390)"><path fill="#ffffff" d="M 0.484375 0 L 29.515625 0 L 29.515625 29.03125 L 0.484375 29.03125 Z M 0.484375 0 " fill-opacity="1" fill-rule="nonzero"/><path fill="#ffffff" d="M 0.484375 0 L 29.515625 0 L 29.515625 29.03125 L 0.484375 29.03125 Z M 0.484375 0 " fill-opacity="1" fill-rule="nonzero"/></g><g clip-path="url(#0c4b36a88e)"><path fill="#0c4edf" d="M 23.34375 7.039062 L 6.65625 7.039062 L 14.496094 13.03125 C 14.792969 13.257812 15.207031 13.257812 15.503906 13.03125 Z M 5.046875 7.890625 L 5.046875 21.878906 L 24.953125 21.878906 L 24.953125 7.890625 L 16.515625 14.339844 C 15.621094 15.023438 14.378906 15.023438 13.484375 14.339844 Z M 3.386719 7.039062 C 3.386719 6.128906 4.128906 5.390625 5.046875 5.390625 L 24.953125 5.390625 C 25.871094 5.390625 26.613281 6.128906 26.613281 7.039062 L 26.613281 21.878906 C 26.613281 22.789062 25.871094 23.527344 24.953125 23.527344 L 5.046875 23.527344 C 4.128906 23.527344 3.386719 22.789062 3.386719 21.878906 Z M 3.386719 7.039062 " fill-opacity="1" fill-rule="evenodd"/></g></svg>