<svg xmlns="http://www.w3.org/2000/svg" xmlns:xlink="http://www.w3.org/1999/xlink" width="40" zoomAndPan="magnify" viewBox="0 0 30 30.000001" height="40" preserveAspectRatio="xMidYMid meet" version="1.0"><defs><clipPath id="5437349d21"><path d="M 0.484375 0 L 29.515625 0 L 29.515625 29.03125 L 0.484375 29.03125 Z M 0.484375 0 " clip-rule="nonzero"/></clipPath><clipPath id="112f7bdc08"><path d="M 3.890625 3.40625 L 26.390625 3.40625 L 26.390625 25.90625 L 3.890625 25.90625 Z M 3.890625 3.40625 " clip-rule="nonzero"/></clipPath></defs><g clip-path="url(#5437349d21)"><path fill="#ffffff" d="M 0.484375 0 L 29.515625 0 L 29.515625 29.03125 L 0.484375 29.03125 Z M 0.484375 0 " fill-opacity="1" fill-rule="nonzero"/><path fill="#ffffff" d="M 0.484375 0 L 29.515625 0 L 29.515625 29.03125 L 0.484375 29.03125 Z M 0.484375 0 " fill-opacity="1" fill-rule="nonzero"/></g><path fill="#0c4edf" d="M 13.222656 12.089844 C 11.121094 13.304688 14.328125 19.316406 16.628906 17.988281 L 18.761719 21.683594 C 17.792969 22.242188 16.96875 22.59375 15.84375 21.953125 C 12.722656 20.167969 9.28125 14.210938 9.378906 10.660156 C 9.414062 9.429688 10.140625 8.945312 11.089844 8.394531 Z M 13.222656 12.089844 " fill-opacity="1" fill-rule="evenodd"/><path fill="#0c4edf" d="M 14.105469 11.988281 C 13.878906 12.121094 13.585938 12.042969 13.457031 11.816406 L 11.445312 8.332031 C 11.3125 8.105469 11.390625 7.8125 11.617188 7.683594 L 12.675781 7.070312 C 12.902344 6.941406 13.195312 7.019531 13.328125 7.246094 L 15.335938 10.730469 C 15.46875 10.957031 15.390625 11.25 15.164062 11.378906 Z M 14.105469 11.988281 " fill-opacity="1" fill-rule="evenodd"/><path fill="#0c4edf" d="M 19.597656 21.503906 C 19.371094 21.632812 19.078125 21.554688 18.949219 21.328125 L 16.9375 17.847656 C 16.804688 17.617188 16.882812 17.328125 17.113281 17.195312 L 18.167969 16.585938 C 18.394531 16.453125 18.6875 16.53125 18.820312 16.761719 L 20.828125 20.242188 C 20.960938 20.46875 20.882812 20.761719 20.65625 20.894531 Z M 19.597656 21.503906 " fill-opacity="1" fill-rule="evenodd"/><g clip-path="url(#112f7bdc08)"><path fill="#0c4edf" d="M 15.136719 3.40625 L 15.136719 3.410156 C 18.242188 3.410156 21.054688 4.667969 23.089844 6.699219 C 25.121094 8.734375 26.378906 11.546875 26.378906 14.652344 L 26.382812 14.652344 L 26.378906 14.652344 C 26.378906 17.761719 25.121094 20.570312 23.089844 22.605469 C 21.054688 24.636719 18.242188 25.898438 15.136719 25.898438 C 12.03125 25.898438 9.21875 24.636719 7.183594 22.605469 C 5.152344 20.570312 3.894531 17.757812 3.894531 14.652344 L 3.890625 14.652344 L 3.894531 14.652344 C 3.894531 11.546875 5.152344 8.734375 7.183594 6.699219 C 9.21875 4.667969 12.03125 3.410156 15.136719 3.410156 Z M 15.136719 4.746094 L 15.136719 4.75 L 15.136719 4.746094 C 12.402344 4.746094 9.929688 5.855469 8.136719 7.652344 C 6.339844 9.445312 5.230469 11.921875 5.230469 14.652344 L 5.234375 14.652344 L 5.230469 14.652344 C 5.230469 17.386719 6.339844 19.859375 8.136719 21.65625 C 9.929688 23.449219 12.40625 24.558594 15.136719 24.558594 L 15.136719 24.554688 L 15.136719 24.558594 C 17.871094 24.558594 20.34375 23.449219 22.136719 21.65625 C 23.933594 19.859375 25.042969 17.386719 25.042969 14.652344 L 25.039062 14.652344 L 25.042969 14.652344 C 25.042969 11.921875 23.933594 9.445312 22.136719 7.652344 C 20.34375 5.859375 17.867188 4.746094 15.136719 4.746094 Z M 15.136719 4.746094 " fill-opacity="1" fill-rule="nonzero"/></g></svg>