<?xml version="1.0" encoding="UTF-8"?>
<svg id="Camada_2" data-name="Camada 2" xmlns="http://www.w3.org/2000/svg" viewBox="0 0 905.12 739.96">
  <defs>
    <style>
      .cls-1 {
        fill: #fff;
      }

      .cls-2 {
        fill: #0013ec;
      }
    </style>
  </defs>
  <g id="Layer_1" data-name="Layer 1">
    <g>
      <path class="cls-2" d="m892.96,346.05c8.8-13.54,12.5-29.89,12.13-45.92-.31-13.93-3.37-30.85-12.58-41.88-9.14-10.95-23.47-4.69-34.2.25-28.45,13.08-54.71,30.7-83.48,43.06-.29.13-2.79,1.18-4.7-1.31-1.12-1.47-1.01-4,1.11-5.35,22.47-14.26,45.17-28.17,67.54-42.6,25.83-16.67,54.49-34.07,61.92-66.24,3.2-13.86,1.7-28.32-2.72-41.74-2.06-6.25-4.75-12.28-7.92-18.05-3.12-5.67-6.69-12.65-12.02-16.51-13.78-9.97-29.69,2.84-41.89,9.62-14.24,7.92-28.44,15.93-42.69,23.84-13.54,7.52-27.12,14.99-40.91,22.04-8.55,4.37-17.49,9.45-26.84,11.9-1.05.28-3.52.13-4.83-1.98-.72-1.16-1.43-4.32,1.82-6.02,22.89-11.95,44.68-26.24,65.72-41.17,20.27-14.38,43.16-29.95,47.1-56.47,3.24-21.76-6.76-43.22-18.74-60.75-3.86-5.65-9.09-9.67-16.03-10.6-7.12-.96-13.44,2.23-19.86,4.81-12.92,5.21-25.75,10.65-38.52,16.22-26.51,11.56-52.78,23.67-79.04,35.78-56.24,25.94-112.53,51.89-170.32,74.25-59.86,23.16-121.67,42.98-185.06,53.81-3.91.67-5.42-1.57-6.7-5.2-1.92-5.47.79-9.54,4.93-12.94,9.72-7.98,20.39-14.77,30.77-21.83,22.4-15.24,47.06-31.34,58.92-56.65,8.59-18.32,11.4-40.64,5.85-60.26-3.69-13.02-13.61-28.07-29.13-22-8.89,3.47-17.39,8.62-25.98,12.8-9.32,4.54-18.66,9.01-28.01,13.48-20.18,9.65-40.38,19.27-60.42,29.21-42.14,20.9-83.84,43.09-122.82,69.52-36.21,24.56-71.24,53.25-96.3,89.53-11.28,16.33-20.36,34.21-25.81,53.33C4.26,305.71.73,349.51.08,382.29c-.71,35.82,2.94,72.45,17.73,105.78,12.74,28.71,34.12,53.46,58.93,72.44,26.37,20.17,56.86,34.44,88.32,44.67,35.57,11.56,72.66,18.19,109.84,21.76,40.27,3.86,80.86,4.16,121.24,2.01,41.92-2.23,83.68-7.12,125.04-14.25,40.37-6.95,80.4-16.02,119.79-27.29,35.84-10.25,71.24-22.3,105.54-36.91,28.64-12.2,56.79-26.12,82.75-43.38,12.65-8.41,26.68-17.73,35.86-29.99,14.67-19.57,15.22-45.24,6.72-67.46-2.15-4.76-6.09-8.37-11.39-9.22-5.78-.93-11.37,2.18-16.48,4.45-10.67,4.74-20.96,10.25-31.2,15.84-8.04,4.39-16.05,8.96-24.52,12.51-2.69,1.13-6.59,3.32-9.57,2.47-2.61-.74-3.92-3.81-2.76-6.25.96-2.02,3.26-2.89,5.09-3.92,2.42-1.37,4.84-2.74,7.26-4.11,3.94-2.24,7.87-4.49,11.79-6.75,7.52-4.35,15-8.76,22.39-13.32,11.66-7.2,22.99-14.88,34.03-23,12.94-9.51,27.57-18.61,36.46-32.3Z"/>
      <g>
        <path class="cls-2" d="m180.01,726.17l13.82-61.3c.21-.93,1.09-1.55,2.03-1.44l38.56,4.51c1.1.13,1.84,1.18,1.6,2.26l-2.74,12.12c-.21.93-1.09,1.55-2.03,1.44l-20.52-2.4c-.31-.04-.61.17-.68.48l-3.02,13.16c-.08.36.17.71.53.75l20,2.34c1.1.13,1.84,1.18,1.6,2.25l-2.59,11.57c-.21.93-1.09,1.55-2.03,1.44l-20.51-2.4c-.32-.04-.61.17-.68.48l-3.9,17.4c-.21.93-1.09,1.55-2.03,1.44l-15.82-1.85c-1.1-.13-1.84-1.18-1.6-2.26Z"/>
        <path class="cls-2" d="m235.46,710.97c2.58-14.32,12.88-23.99,25.8-23.03,6.24.46,10.41,3.36,12.31,7.29.26.53,1.05.42,1.16-.17l.57-3.09c.17-.93,1.02-1.59,1.97-1.52l14.77,1.1c1.1.08,1.89,1.1,1.69,2.19l-7.72,42.84c-.17.94-1.02,1.6-1.97,1.53l-14.75-1.09c-1.1-.08-1.89-1.1-1.69-2.19l.46-2.48c.11-.6-.63-.99-1.05-.54-3.33,3.54-8.62,5.73-14.69,5.28-13.11-.97-19.42-11.87-16.84-26.11Zm36.83,1.79c.56-5.17-1.97-9.17-7.23-9.56-5.28-.39-9.46,3.48-10.45,9.19-.92,5.31,1.28,9.38,5.84,10.24,5.9,1.11,11.19-3.9,11.84-9.87Z"/>
        <path class="cls-2" d="m295.59,735.9l.63-4.88c.18-1.42.88-2.72,1.95-3.66l21.38-18.86c.43-.54.22-.99-.47-1.01l-15.31-.43c-1.11-.03-1.94-1.01-1.79-2.11l1.54-11.38c.13-.94.95-1.64,1.9-1.61l39.74,1.16c1.52.04,2.66,1.4,2.45,2.9l-.71,5.14c-.18,1.31-.8,2.52-1.75,3.44l-20.76,18.83c-.42.53-.21.98.47,1l16.29.43c1.1.03,1.94,1.01,1.79,2.11l-1.54,11.38c-.13.94-.95,1.64-1.9,1.61l-41.46-1.18c-1.51-.04-2.65-1.38-2.46-2.88Z"/>
        <path class="cls-2" d="m434.11,719.12c-.64,11.2-9.4,18.7-22.44,19.28l-31.01,1.38c-1.1.05-2.01-.87-1.94-1.97l3.81-62.73c.06-.95.82-1.7,1.77-1.75l30.65-1.37c12.95-.58,20.61,5.71,20.04,16.25-.51,7.48-4.73,12.9-11.16,15.28-1.03.38-.99.92.08,1.17,6.54,1.5,10.67,6.66,10.18,14.46Zm-28.34,5.81c5.01-.23,8.19-3.21,8.46-7.67.28-4.27-2.68-6.98-7.5-6.76l-6.24.28c-.32.01-.57.27-.59.58l-.8,13.19c-.02.37.28.67.65.66l6.02-.27Zm-4.36-39.12l-.72,12.8c-.02.37.28.67.65.65l5.55-.25c4.82-.21,8.01-3.1,8.29-7.47.28-4.37-2.58-6.8-7.49-6.58l-5.68.26c-.32.01-.57.27-.59.58Z"/>
        <path class="cls-2" d="m494.51,712.04l-32.35,3.44c-.34.04-.6.35-.56.69.57,4.48,3.88,6.57,8.92,6.03,3.42-.36,5.81-1.29,6.92-3.22.29-.5.81-.83,1.39-.9l14.21-1.51c1.36-.14,2.39,1.17,1.96,2.47-2.86,8.69-12.07,14.68-24.45,16-16.84,1.79-27.45-5.84-27.45-22,.02-15.89,10.72-26.16,27-27.89,15.52-1.65,26.35,6.24,26.35,19.75,0,2.22-.07,3.64-.3,5.52-.1.86-.79,1.53-1.65,1.63Zm-17.14-8.45c.33-.03.58-.33.56-.65-.27-4.74-3.09-7.07-8.06-6.55-4.81.52-7.81,3.65-8.32,8.13-.04.39.3.71.69.67l15.13-1.61Z"/>
        <path class="cls-2" d="m508.1,727.67l-3.35-43.39c-.07-.95.58-1.8,1.52-1.97l14.57-2.67c1.08-.2,2.09.58,2.19,1.67l.2,2.27c.1,1.2.63,1.3,1.16.22,2.09-4.19,6.18-7.28,12.09-8.37,7.19-1.32,11.58.75,14.26,4.83.37.56,1.19.52,1.48-.09,2.48-5.2,7.48-8.99,13.84-10.16,12.84-2.36,16.94,5.84,17.76,16.65l2.08,27.16c.07.95-.58,1.8-1.52,1.97l-14.93,2.74c-1.09.2-2.11-.59-2.19-1.69l-1.81-23.35c-.43-5.5-2.46-7.14-5.9-6.52-3.63.67-5.61,3.53-5.12,10.36l1.7,21.94c.07.95-.58,1.8-1.52,1.97l-14.93,2.74c-1.09.2-2.11-.59-2.19-1.69l-1.81-23.35c-.43-5.5-2.37-7.16-5.81-6.53-3.9.71-5.7,3.54-5.21,10.38l1.7,21.93c.07.95-.58,1.8-1.52,1.97l-14.55,2.66c-1.09.2-2.1-.59-2.19-1.69Z"/>
        <path class="cls-2" d="m625.39,703.11l-10.88-61.9c-.16-.94.4-1.85,1.32-2.11l37.32-10.7c1.06-.3,2.15.38,2.35,1.47l2.15,12.25c.16.94-.4,1.85-1.32,2.11l-19.86,5.69c-.3.09-.49.39-.44.7l2.29,13.31c.06.36.43.59.78.49l19.36-5.55c1.06-.3,2.15.38,2.34,1.46l2.08,11.67c.17.94-.4,1.85-1.32,2.11l-19.85,5.7c-.31.09-.5.39-.44.7l3.11,17.56c.17.94-.4,1.85-1.32,2.11l-15.32,4.39c-1.06.3-2.15-.38-2.35-1.47Z"/>
        <path class="cls-2" d="m670.91,667.57c-3.35-14.16,2.24-27.14,14.47-31.41,5.9-2.06,10.88-1.07,14.2,1.78.77.66,1.22.37.99-.61l-.71-3.06c-.22-.93.3-1.86,1.2-2.18l13.98-4.88c1.04-.36,2.17.25,2.42,1.33l10.01,42.36c.22.93-.3,1.87-1.2,2.18l-13.96,4.88c-1.04.37-2.18-.26-2.43-1.33l-.57-2.46c-.25-1.09-.8-1.13-1.18-.08-1.64,4.58-5.62,8.7-11.37,10.7-12.41,4.34-22.54-3.13-25.86-17.21Zm34.74-12.15c-1.34-5.55-5.42-8.62-10.69-6.78-5,1.75-7.29,6.96-5.92,12.59,1.37,5.63,5.48,8.5,10.48,6.75,5.27-1.84,7.43-7.11,6.13-12.56Z"/>
        <path class="cls-2" d="m826.11,609.34l-29.53,13.66c-.31.14-.46.53-.31.83,1.98,4.06,5.79,4.97,10.39,2.84,3.12-1.45,5.09-3.09,5.52-5.28.11-.57.5-1.05,1.03-1.3l12.97-6.01c1.24-.57,2.64.34,2.65,1.71.09,9.16-6.71,17.79-18,23.02-15.37,7.12-27.87,3.31-33.08-12-5.09-15.06,1.74-28.22,16.59-35.1,14.17-6.56,26.96-2.57,31.32,10.21.72,2.1,1.1,3.48,1.49,5.33.18.85-.26,1.71-1.04,2.07Zm-18.95-2.49c.3-.14.44-.5.32-.8-1.78-4.39-5.2-5.7-9.74-3.6-4.4,2.03-6.22,5.97-5.26,10.38.08.38.51.58.87.42l13.81-6.39Z"/>
        <path class="cls-2" d="m842.49,619.97l-15.71-40.6c-.34-.89.04-1.89.89-2.33l13.18-6.76c.98-.5,2.18-.05,2.58.97l1.9,4.82s.47,1.35.7,1.77c.05.09.45.63.38-.17-.05-.67-.1-1.42-.08-1.91.14-6.06,3.2-10.98,8.05-13.47.47-.24.99-.47,1.47-.67.97-.4,2.07.07,2.45,1.05l5.01,12.89c.37.95-.09,2.03-1.05,2.4-.84.32-1.6.68-2.64,1.21-7.41,3.8-9.25,9.95-5.56,19.43l5.09,13.28c.34.89-.04,1.89-.89,2.32l-13.18,6.75c-.98.5-2.19.05-2.58-.98Z"/>
        <path class="cls-2" d="m736.24,666.12l-1.39-4.72c-.41-1.37-.3-2.84.3-4.14l11.91-25.9c.18-.66-.2-.99-.83-.73l-14.18,5.8c-1.02.42-2.18-.14-2.49-1.2l-3.2-11.02c-.27-.91.2-1.88,1.08-2.24l36.81-15.03c1.41-.57,3,.2,3.42,1.66l1.43,4.99c.36,1.27.29,2.63-.21,3.85l-11.36,25.63c-.17.66.21.98.84.73l15.07-6.2c1.02-.42,2.18.14,2.49,1.2l3.2,11.02c.27.91-.2,1.88-1.08,2.24l-38.39,15.71c-1.4.57-2.98-.19-3.41-1.64Z"/>
      </g>
      <path class="cls-1" d="m643.72,425.38c-2.69.68-4.9-1.2-4.67-3.97l14.01-173.63c.2-2.42,1.76-4.28,4.11-4.89,9.45-2.46,21.03-5.6,29.08-7.89,2.34-.66,4.57.44,5.47,2.72l60.27,150.97c1.1,2.76-.21,5.53-3.05,6.41l-24.85,7.77c-3.28,1.02-6.41-.58-7.51-3.83l-6.23-18.5-35,9.76-1.02,22.48c-.12,2.75-1.85,4.92-4.51,5.65-8.86,2.45-17.31,4.73-26.12,6.93Zm33.19-69.21l23.05-6.54-20.06-59.59-2.99,66.13Zm-145.08,93.45c-2.6.49-4.47-1.58-3.71-4.11l26.58-88.48-24.9-80.24c-.92-2.98.75-5.72,3.83-6.29,9.37-1.73,17.45-3.3,27.2-5.29,2.58-.54,4.87.9,5.49,3.45l12.06,49.14,14.27-56.23c.57-2.23,2.23-3.82,4.5-4.33,11.05-2.48,19.1-4.44,28.32-6.67,2.68-.65,4.7,1.46,3.94,4.11l-26.59,92.69,25.31,75.96c.95,2.83-.53,5.52-3.42,6.23-9.18,2.25-18.42,4.43-27.71,6.54-2.34.53-4.48-.65-5.29-2.91l-15.04-42.12-11.99,48.58c-.57,2.29-2.26,3.92-4.57,4.4-9.52,1.96-18.45,3.71-28.3,5.57Zm-47.51,7.71c-3.22.53-5.78-1.65-5.78-4.92v-168.41c0-2.65,1.77-4.69,4.39-5.1,9.02-1.4,17.35-2.88,25.92-4.33,3.24-.56,5.82,1.64,5.82,4.92v168.52c0,2.62-1.73,4.65-4.31,5.06l-26.04,4.25Zm-82.23,10.54c-2.58.25-4.56-1.55-4.56-4.15v-170.12c0-2.45,1.67-4.3,4.11-4.55,18.63-1.94,36.58-4.05,56.26-6.91,2.27-.33,4.07,1.21,4.07,3.5v29.85c0,1.68-1.12,2.97-2.79,3.2-8.34,1.16-16.11,2.3-25.52,3.48v42.14c7.66-.92,15.7-1.98,24.21-3.24,2.29-.34,4.09,1.2,4.09,3.5v31.74c0,1.67-1.11,2.95-2.77,3.19-8.87,1.29-16.8,2.39-25.54,3.46v57.23c0,2.39-1.61,4.2-3.97,4.51-9.45,1.19-18.36,2.26-27.59,3.17Zm-140.07,7.97c-2,.05-3.47-1.39-3.47-3.39v-171.44c0-2.31,1.65-3.99,3.96-4.03,11.43-.19,22.44-.38,35.19-.86,2.02-.08,3.63,1.2,3.99,3.18l18.42,101.33,17.01-103.07c.34-2.08,1.94-3.52,4.06-3.68,12.49-.88,22.42-1.59,34.51-2.72,2.6-.24,4.59,1.55,4.59,4.15v171.35c0,1.78-1.24,3.13-3.02,3.27l-26.15,2.14c-2.13.17-3.74-1.32-3.74-3.45v-94.14l-15.15,95.18c-.34,2.14-1.97,3.61-4.14,3.73l-15.47.83c-2.04.11-3.66-1.18-4.03-3.18l-17.1-92.75v93.59c0,1.91-1.36,3.31-3.27,3.34l-26.17.59Zm-23.4.16c-21.15-.03-47.34-.87-60.98-1.5-1.55-.07-2.65-1.96-2.65-4.56v-170.84c0-2.05,1.52-3.5,3.56-3.42,20.04.84,40.05,1.34,60.08,1.41,1.95,0,3.36,1.41,3.36,3.36v26.79c0,1.98-1.43,3.4-3.41,3.38-9.04-.07-17.76-.06-27.47-.3v41.11c9.17.2,18.34.28,27.51.3,1.95,0,3.36,1.42,3.36,3.37v24.79c0,1.98-1.44,3.4-3.42,3.38-9.08-.09-17.99-.11-27.46-.3v39.2c9.42.3,18.42.24,27.55.33,1.94.01,3.33,1.42,3.33,3.36v26.75c0,1.95-1.41,3.37-3.37,3.36Zm-126.82-109.31c8.29.81,11.17-7.87,11.17-23.82s-2.61-23.45-10-24.26l-6.09-.67v48.28l4.93.48Zm1.64,103.79c-14.02-1.26-25.47-2.47-39.68-4.07-1.79-.2-3.02-1.52-3.02-3.25v-172.78c0-1.76,1.36-2.97,3.11-2.78,16.08,1.78,32.46,3.44,49.18,4.89,22.52,1.95,36.67,21.23,36.67,50.82,0,18.66-8.36,32.16-20.59,37.31-.65,0-.65,1.29,0,1.29,12.86,5.14,21.87,19.3,21.87,43.09,0,30.24-17.38,48.18-47.54,45.47Zm-.03-28.39c8.55.78,11.47-9.89,11.47-25.05s-2.62-24.33-11.47-25.13l-6.54-.59v50.17l6.54.6Z"/>
    </g>
  </g>
</svg>